<svg width="600" height="200" viewBox="0 0 600 200" xmlns="http://www.w3.org/2000/svg">
    <!-- Fondo transparente -->

    <!-- Círculo aura dorado -->
    <circle cx="200" cy="100" r="80" fill="none" stroke="#C9A24D" stroke-width="3"/>

    <!-- Destello -->
    <polygon points="275,45 280,55 290,60 280,65 275,75 270,65 260,60 270,55" fill="#C9A24D"/>

    <!-- Texto Aura -->
    <defs><path id="gl_1" d="M0.421875,0 l17.789062,-45.10547 l6.9257812,0 l17.789062,45.10547 l-7.3476562,0 l-4.2539062,-11.285156 l-20.601562,0 l-4.3242188,11.285156 l-5.9765625,0 ZM12.796875,-16.488281 l16.453125,0 l-8.261719,-21.550781 l-8.191406,21.550781 Z"/></defs><use href="#gl_1" transform="translate(140,115)" fill="rgba(196,138,138,1)" stroke="none"/><defs><path id="gl_2" d="M36.984375,-38.179688 l0,38.179688 l-6.9257812,0 l0,-7.171875 q-4.78125,8.050781 -13.042969,8.050781 q-10.828125,0 -10.828125,-12.9375 l0,-26.121094 l6.9257812,0 l0,24.222656 q0,4.5 1.3710938,6.3984375 q1.3710938,1.8632812 4.6757812,1.8632812 q5.203125,0 10.8984375,-7.5234375 l0,-24.960938 l6.9257812,0 Z"/></defs><use href="#gl_2" transform="translate(183.38281,115)" fill="rgba(196,138,138,1)" stroke="none"/><defs><path id="gl_3" d="M10.828125,0 l0,-38.179688 l6.9257812,0 l0,7.171875 q5.2734375,-8.015625 14.167969,-8.015625 q3.1289062,0 7.1015625,0.87890625 l0,10.828125 l-5.203125,0 l0,-5.3085938 q-1.546875,-0.3515625 -2.8125,-0.3515625 q-3.9726562,0 -6.9960938,1.828125 q-2.9882812,1.8632812 -6.2578125,6.2929688 l0,24.855469 l-6.9257812,0 Z"/></defs><use href="#gl_3" transform="translate(226.76562,115)" fill="rgba(196,138,138,1)" stroke="none"/><defs><path id="gl_4" d="M29.355469,-4.6054688 q-6.2929688,5.2734375 -12.550781,5.2734375 q-5.2382812,0 -8.613281,-2.9882812 q-3.4101562,-2.9882812 -3.4101562,-7.5585938 q0,-5.9414062 5.2734375,-9.5625 q5.2734375,-3.6210938 13.921875,-3.6210938 l4.2890625,0 l0,-3.2695312 q0,-4.0429688 -1.7929688,-5.765625 q-1.7929688,-1.7226562 -5.9414062,-1.7226562 q-6.0117188,0 -12.4453125,3.375 l0,-5.9414062 q7.3828125,-2.6367188 13.8515625,-2.6367188 q7.2773438,0 10.300781,2.8828125 q2.9882812,2.8828125 2.9882812,9.949219 l0,15.996094 q0,3.4453125 0.73828125,4.7109375 q0.73828125,1.2304688 2.7773438,1.2304688 q0.66796875,0 2.1796875,-0.3515625 l0.6328125,4.1484375 q-3.4804688,1.125 -5.2734375,1.125 q-5.1328125,0 -6.9257812,-5.2734375 ZM28.265625,-9.105469 l0,-9.6328125 l-2.0742188,0 q-14.238281,0 -14.238281,7.6992188 q0,2.7773438 1.828125,4.4648438 q1.828125,1.6875 4.8515625,1.6875 q4.5351562,0 9.6328125,-4.21875 Z"/></defs><use href="#gl_4" transform="translate(270.14844,115)" fill="rgba(196,138,138,1)" stroke="none"/>

    <!-- Texto Beauty -->
    <defs><path id="gl_5" d="M2.3486328,0 l0,-16.288086 l5.2558594,0 q5.7128906,0 5.7128906,3.7832031 q0,1.4472656 -0.9902344,2.4882812 q-0.97753906,1.0537109 -2.7421875,1.4980469 q4.5322266,0.9267578 4.5322266,4.303711 q0,1.9296875 -1.3330078,3.0214844 q-0.86328125,0.7236328 -1.9677734,0.95214844 q-1.1044922,0.24121094 -3.5546875,0.24121094 l-4.913086,0 ZM4.8496094,-9.2421875 l0.87597656,0 q5.0527344,0 5.0527344,-2.8183594 q0,-1.3837891 -0.97753906,-1.8662109 q-0.97753906,-0.48242188 -3.7832031,-0.48242188 l-1.1679688,0 l0,5.166992 ZM4.8496094,-1.8789062 l2.2597656,0 q2.475586,0 3.415039,-0.5078125 q0.9267578,-0.5078125 0.9267578,-1.8662109 q0,-1.5742188 -1.5234375,-2.5009766 q-1.5361328,-0.9267578 -4.1640625,-0.9267578 l-0.9140625,0 l0,5.801758 Z"/></defs><use href="#gl_5" transform="translate(320,125)" fill="rgba(201,162,77,1)" stroke="none"/><defs><path id="gl_6" d="M2.7421875,0 l0,-16.288086 l11.006836,0 l0,1.8789062 l-8.505859,0 l0,4.9384766 l7.2109375,0 l0,1.8789062 l-7.2109375,0 l0,5.7128906 l9.089844,0 l0,1.8789062 l-11.59082,0 Z"/></defs><use href="#gl_6" transform="translate(339.66602,125)" fill="rgba(201,162,77,1)" stroke="none"/><use href="#gl_1" transform="matrix(0.3611 0 0 0.3611 359.332 125)" fill="rgba(201,162,77,1)" stroke="none"/><defs><path id="gl_7" d="M1.9423828,-16.288086 l2.5009766,0 l0,9.889648 q0,2.5898438 0.8125,3.7578125 q0.8251953,1.1552734 2.6533203,1.1552734 q1.9296875,0 2.7802734,-1.1679688 q0.85058594,-1.1552734 0.85058594,-3.8085938 l0,-9.826172 l2.1835938,0 l0,9.458008 q0,3.0595703 -0.7236328,4.392578 q-1.5361328,2.8310547 -5.0654297,2.8310547 q-3.0595703,0 -4.5322266,-1.6757812 q-1.4599609,-1.6757812 -1.4599609,-5.154297 l0,-9.8515625 Z"/></defs><use href="#gl_7" transform="translate(378.99805,125)" fill="rgba(201,162,77,1)" stroke="none"/><defs><path id="gl_8" d="M6.576172,0 l0,-14.40918 l-6.258789,0 l0,-1.8789062 l15.03125,0 l0,1.8789062 l-6.258789,0 l0,14.40918 l-2.5136719,0 Z"/></defs><use href="#gl_8" transform="translate(398.66406,125)" fill="rgba(201,162,77,1)" stroke="none"/><defs><path id="gl_9" d="M6.588867,0 l0,-6.665039 l-6.182617,-9.623047 l2.881836,0 l4.7353516,7.515625 l5.1796875,-7.515625 l2.3740234,0 l-6.4873047,9.623047 l0,6.665039 l-2.5009766,0 Z"/></defs><use href="#gl_9" transform="translate(418.33008,125)" fill="rgba(201,162,77,1)" stroke="none"/>
</svg>